<svg width="33" height="32" viewBox="0 0 33 32" fill="none" xmlns="http://www.w3.org/2000/svg">
<mask id="path-1-inside-1_7132_21525" fill="white">
<path fill-rule="evenodd" clip-rule="evenodd" d="M1.12734 10.3186C0.5 11.5084 0.5 12.862 0.5 15.5693V24.0243C0.5 27.7841 0.5 29.664 1.83894 30.832C3.08364 31.9178 5.03355 31.9942 8.76432 31.9996V22.0306C8.76432 19.563 10.9605 18.0159 13.0709 18.0159H19.928C22.0384 18.0159 24.2346 19.563 24.2346 22.0306V31.9996C27.9661 31.9942 29.9162 31.9179 31.1611 30.832C32.5 29.664 32.5 27.7841 32.5 24.0243V15.5693C32.5 12.862 32.5 11.5084 31.8727 10.3186C31.2453 9.1287 30.0672 8.24777 27.7109 6.4859L25.4251 4.77683C21.1661 1.59228 19.0366 0 16.5 0C13.9634 0 11.8339 1.59228 7.57486 4.77683L5.28915 6.4859C2.93284 8.24777 1.75468 9.1287 1.12734 10.3186ZM20.1929 32V22.1263C20.147 22.0961 20.0589 22.0575 19.928 22.0575H13.0709C12.94 22.0575 12.8519 22.0961 12.806 22.1263V32H20.1929Z"/>
</mask>
<path fill-rule="evenodd" clip-rule="evenodd" d="M1.12734 10.3186C0.5 11.5084 0.5 12.862 0.5 15.5693V24.0243C0.5 27.7841 0.5 29.664 1.83894 30.832C3.08364 31.9178 5.03355 31.9942 8.76432 31.9996V22.0306C8.76432 19.563 10.9605 18.0159 13.0709 18.0159H19.928C22.0384 18.0159 24.2346 19.563 24.2346 22.0306V31.9996C27.9661 31.9942 29.9162 31.9179 31.1611 30.832C32.5 29.664 32.5 27.7841 32.5 24.0243V15.5693C32.5 12.862 32.5 11.5084 31.8727 10.3186C31.2453 9.1287 30.0672 8.24777 27.7109 6.4859L25.4251 4.77683C21.1661 1.59228 19.0366 0 16.5 0C13.9634 0 11.8339 1.59228 7.57486 4.77683L5.28915 6.4859C2.93284 8.24777 1.75468 9.1287 1.12734 10.3186ZM20.1929 32V22.1263C20.147 22.0961 20.0589 22.0575 19.928 22.0575H13.0709C12.94 22.0575 12.8519 22.0961 12.806 22.1263V32H20.1929Z" fill="#9747FF"/>
<path d="M1.12734 10.3186L2.8965 11.2513L2.8965 11.2513L1.12734 10.3186ZM1.83894 30.832L3.15368 29.3248L1.83894 30.832ZM8.76432 31.9996L8.76144 33.9996L10.7643 34.0025V31.9996H8.76432ZM24.2346 31.9996H22.2346V34.0025L24.2374 33.9996L24.2346 31.9996ZM31.1611 30.832L32.4758 32.3391H32.4758L31.1611 30.832ZM31.8727 10.3186L30.1035 11.2513V11.2513L31.8727 10.3186ZM27.7109 6.4859L28.9085 4.88415L27.7109 6.4859ZM25.4251 4.77683L24.2275 6.37858V6.37858L25.4251 4.77683ZM7.57486 4.77683L6.3772 3.17508L7.57486 4.77683ZM5.28915 6.4859L6.48681 8.08766L5.28915 6.4859ZM20.1929 32V34H22.1929V32H20.1929ZM20.1929 22.1263H22.1929V21.0498L21.2943 20.4569L20.1929 22.1263ZM12.806 22.1263L11.7046 20.4569L10.806 21.0498V22.1263H12.806ZM12.806 32H10.806V34H12.806V32ZM2.5 15.5693C2.5 12.6611 2.55305 11.9027 2.8965 11.2513L-0.64182 9.38578C-1.55305 11.1141 -1.5 13.063 -1.5 15.5693H2.5ZM2.5 24.0243V15.5693H-1.5V24.0243H2.5ZM3.15368 29.3248C2.96201 29.1576 2.76885 28.9053 2.64403 28.0954C2.50555 27.1969 2.5 25.9687 2.5 24.0243H-1.5C-1.5 25.8397 -1.50555 27.4313 -1.30929 28.7047C-1.09938 30.0667 -0.623066 31.3383 0.524203 32.3391L3.15368 29.3248ZM8.76721 29.9996C6.87192 29.9969 5.59478 29.9732 4.64698 29.8403C3.73553 29.7126 3.36831 29.5121 3.15368 29.3248L0.524203 32.3391C1.55427 33.2377 2.78435 33.6183 4.09173 33.8016C5.36276 33.9797 6.92596 33.9969 8.76144 33.9996L8.76721 29.9996ZM10.7643 31.9996V22.0306H6.76432V31.9996H10.7643ZM10.7643 22.0306C10.7643 20.9493 11.7604 20.0159 13.0709 20.0159V16.0159C10.1605 16.0159 6.76432 18.1766 6.76432 22.0306H10.7643ZM13.0709 20.0159H19.928V16.0159H13.0709V20.0159ZM19.928 20.0159C21.2385 20.0159 22.2346 20.9493 22.2346 22.0306H26.2346C26.2346 18.1766 22.8384 16.0159 19.928 16.0159V20.0159ZM22.2346 22.0306V31.9996H26.2346V22.0306H22.2346ZM29.8463 29.3248C29.6317 29.5121 29.2644 29.7126 28.3528 29.8403C27.4048 29.9732 26.1274 29.9969 24.2317 29.9996L24.2374 33.9996C26.0733 33.997 27.6367 33.9798 28.9079 33.8016C30.2154 33.6184 31.4456 33.2378 32.4758 32.3391L29.8463 29.3248ZM30.5 24.0243C30.5 25.9687 30.4945 27.1969 30.356 28.0954C30.2312 28.9053 30.038 29.1576 29.8463 29.3248L32.4758 32.3391C33.6231 31.3383 34.0994 30.0667 34.3093 28.7047C34.5056 27.4313 34.5 25.8397 34.5 24.0243H30.5ZM30.5 15.5693V24.0243H34.5V15.5693H30.5ZM30.1035 11.2513C30.447 11.9027 30.5 12.6611 30.5 15.5693H34.5C34.5 13.063 34.553 11.1141 33.6418 9.38578L30.1035 11.2513ZM26.5132 8.08766C27.7171 8.98783 28.5241 9.59314 29.1166 10.1161C29.6862 10.6189 29.9453 10.9512 30.1035 11.2513L33.6418 9.38578C33.1727 8.49606 32.5291 7.79295 31.7637 7.11731C31.0212 6.46193 30.0609 5.74584 28.9085 4.88415L26.5132 8.08766ZM24.2275 6.37858L26.5132 8.08766L28.9085 4.88415L26.6228 3.17508L24.2275 6.37858ZM16.5 2C17.2975 2 18.1152 2.23404 19.3182 2.92716C20.5723 3.64971 22.0594 4.75747 24.2275 6.37858L26.6228 3.17508C24.5319 1.61163 22.8247 0.330977 21.3151 -0.538746C19.7545 -1.4379 18.2392 -2 16.5 -2V2ZM8.77252 6.37858C10.9406 4.75747 12.4277 3.64971 13.6818 2.92716C14.8848 2.23404 15.7025 2 16.5 2V-2C14.7608 -2 13.2455 -1.4379 11.6849 -0.538746C10.1753 0.330977 8.46815 1.61163 6.3772 3.17508L8.77252 6.37858ZM6.48681 8.08766L8.77252 6.37858L6.3772 3.17508L4.09149 4.88415L6.48681 8.08766ZM2.8965 11.2513C3.05474 10.9512 3.31385 10.6189 3.88341 10.1161C4.47593 9.59314 5.28291 8.98783 6.48681 8.08766L4.09149 4.88415C2.93907 5.74584 1.97882 6.46193 1.23634 7.11731C0.470922 7.79295 -0.172723 8.49606 -0.641821 9.38578L2.8965 11.2513ZM22.1929 32V22.1263H18.1929V32H22.1929ZM21.2943 20.4569C20.93 20.2166 20.4605 20.0575 19.928 20.0575V24.0575C19.6573 24.0575 19.364 23.9756 19.0915 23.7958L21.2943 20.4569ZM19.928 20.0575H13.0709V24.0575H19.928V20.0575ZM13.0709 20.0575C12.5384 20.0575 12.0689 20.2166 11.7046 20.4569L13.9074 23.7958C13.6349 23.9756 13.3416 24.0575 13.0709 24.0575V20.0575ZM10.806 22.1263V32H14.806V22.1263H10.806ZM20.1929 30H12.806V34H20.1929V30Z" fill="#222222" mask="url(#path-1-inside-1_7132_21525)"/>
</svg>
