<svg width="132" height="50" viewBox="0 0 132 50" fill="none" xmlns="http://www.w3.org/2000/svg">
<path d="M3.48844 29.9878V26.8982H7.46438C8.46892 26.8982 9.30884 26.6787 9.98416 26.2398C10.6679 25.7924 11.1829 25.1466 11.529 24.3024C11.8835 23.4499 12.0608 22.4116 12.0608 21.1875V20.3392C12.0608 19.0983 11.8877 18.0557 11.5416 17.2116C11.1955 16.3674 10.6806 15.7301 9.99683 15.2996C9.32151 14.8691 8.49002 14.6538 7.50237 14.6538H3.41246V11.5516H7.50237C9.16534 11.5516 10.6299 11.923 11.8962 12.6659C13.1624 13.4003 14.15 14.4301 14.8591 15.7554C15.5767 17.0723 15.9354 18.6087 15.9354 20.3645V21.1875C15.9354 22.9434 15.5767 24.4839 14.8591 25.8093C14.15 27.1261 13.1582 28.1518 11.8835 28.8862C10.6173 29.6206 9.14424 29.9878 7.46438 29.9878H3.48844ZM5.66634 29.9878H1.81702V11.5516H5.66634V29.9878ZM30.9918 29.9878H17.9497V26.8982H30.9918V29.9878ZM19.6211 29.9878H16.9494V27.7466L28.1935 11.5516H30.7892V13.7421L19.6211 29.9878ZM29.4597 14.6538H16.9367V11.5516H29.4597V14.6538ZM45.5428 29.9878H41.7188V11.5516H45.5428V29.9878ZM51.1775 14.6538H36.16V11.5516H51.1775V14.6538ZM59.1683 11.5516C60.5865 11.5516 61.8021 11.7668 62.8151 12.1974C63.8365 12.6194 64.6215 13.2441 65.1702 14.0714C65.7189 14.8902 65.9933 15.9074 65.9933 17.123C65.9933 18.1191 65.8245 18.9716 65.4868 19.6807C65.1576 20.3814 64.6891 20.9681 64.0813 21.4408C63.4819 21.9051 62.7729 22.2807 61.954 22.5677L60.7385 23.2388H54.8505V20.1492H59.1683C59.8268 20.1492 60.3755 20.0353 60.8144 19.8074C61.2618 19.5794 61.5953 19.2629 61.8147 18.8577C62.0427 18.4441 62.1566 17.9629 62.1566 17.4142C62.1566 16.5616 61.9118 15.8905 61.4222 15.4009C60.9326 14.9028 60.1813 14.6538 59.1683 14.6538H56.1421V29.9878H52.3054V11.5516H59.1683ZM58.3833 21.7573H62.4352L66.677 29.8105V29.9878H62.5745L58.3833 21.7573ZM70.4514 29.9878H66.3742L73.2498 11.5516H75.8075L75.4783 14.8691L70.4514 29.9878ZM74.5666 14.8691L74.1994 11.5516H76.7825L83.6834 29.9878H79.6189L74.5666 14.8691ZM79.4669 26.2018H69.641V23.1122H79.4669V26.2018Z" fill="black"/>
<path d="M40.1893 18.5028L5.59766 49.2938L40.1893 25L70.9551 50L119.256 14.548L125.313 20.904L131.69 0L107.3 2.11864L113.358 8.61582L70.4769 39.548L40.1893 18.5028Z" fill="url(#paint0_linear_7123_7412)"/>
<path d="M89.4611 29.9878V26.8982H93.437C94.4416 26.8982 95.2815 26.6787 95.9568 26.2398C96.6406 25.7924 97.1555 25.1466 97.5016 24.3024C97.8562 23.4499 98.0334 22.4116 98.0334 21.1875V20.3392C98.0334 19.0983 97.8604 18.0557 97.5143 17.2116C97.1682 16.3674 96.6532 15.7301 95.9695 15.2996C95.2942 14.8691 94.4627 14.6538 93.475 14.6538H89.3851V11.5516H93.475C95.138 11.5516 96.6026 11.923 97.8688 12.6659C99.135 13.4003 100.123 14.4301 100.832 15.7554C101.549 17.0723 101.908 18.6087 101.908 20.3645V21.1875C101.908 22.9434 101.549 24.4839 100.832 25.8093C100.123 27.1261 99.1308 28.1518 97.8562 28.8862C96.5899 29.6206 95.1169 29.9878 93.437 29.9878H89.4611ZM91.639 29.9878H87.7897V11.5516H91.639V29.9878ZM116.002 29.9878H106.265V26.8982H116.002V29.9878ZM107.468 29.9878H103.618V11.5516H107.468V29.9878ZM114.723 22.0106H106.265V19.0096H114.723V22.0106ZM115.964 14.6538H106.265V11.5516H115.964V14.6538Z" fill="black"/>
<defs>
<linearGradient id="paint0_linear_7123_7412" x1="145.239" y1="20.7627" x2="5.64242" y2="26.1583" gradientUnits="userSpaceOnUse">
<stop stop-color="#00B57A"/>
<stop offset="1" stop-color="#004F35"/>
</linearGradient>
</defs>
</svg>
